<?xml version="1.0" encoding="utf-8"?>
<!-- Generator: Adobe Illustrator 22.0.0, SVG Export Plug-In . SVG Version: 6.00 Build 0)  -->
<svg version="1.1" id="Layer_1" xmlns="http://www.w3.org/2000/svg" xmlns:xlink="http://www.w3.org/1999/xlink" x="0px" y="0px"
	 viewBox="0 0 697.2 122.1" style="enable-background:new 0 0 697.2 122.1;" xml:space="preserve">
<style type="text/css">
	.st0{fill:#FF6347;}
</style>
<title>linguocast-full-logo</title>
<path class="st0" d="M62.2,78.5V4.4h22.7v74.1H62.2z"/>
<path class="st0" d="M100.7,78.5V4.4h22.7v3.7c2.5-1.9,5.4-3.3,8.3-4.2c3.2-1,6.6-1.5,10-1.5c4.8-0.1,9.6,1.2,13.8,3.7
	c4,2.5,7.3,6.2,9.3,10.7c2.4,5.2,3.5,10.9,3.4,16.7v45h-22.7V36.6c0.2-3.3-0.7-6.5-2.5-9.3c-1.7-2.3-4.4-3.5-8-3.5
	c-3.2-0.2-6.2,1-8.5,3.3c-2,2.2-3,5.4-3,9.5v41.9H100.7z"/>
<path class="st0" d="M330.5,4.4v74.1h-22.7v-3.7c-2.5,1.9-5.4,3.3-8.3,4.2c-3.2,1-6.6,1.5-10,1.5c-4.8,0.1-9.6-1.2-13.8-3.7
	c-4-2.6-7.3-6.3-9.3-10.8c-2.4-5.2-3.5-10.9-3.4-16.7v-45h22.7v41.9c-0.1,3.3,0.7,6.5,2.5,9.2c1.7,2.3,4.4,3.5,8,3.5
	c3.2,0.2,6.3-1,8.5-3.3c2-2.2,3-5.3,3-9.5V4.4H330.5z"/>
<path class="st0" d="M379.3,80.8c-5.1,0-10.1-1-14.8-2.9c-4.5-1.9-8.6-4.7-12-8.3c-3.4-3.6-6-7.9-7.8-12.5
	c-3.8-10.1-3.8-21.2,0-31.3c3.6-9.4,10.8-16.9,19.9-20.7c9.6-3.9,20.2-3.9,29.8,0c9,3.8,16.1,11.3,19.7,20.7c3.8,10,3.8,21.2,0,31.3
	c-1.8,4.7-4.5,8.9-7.8,12.5c-3.4,3.6-7.4,6.4-11.9,8.3C389.5,79.8,384.4,80.8,379.3,80.8z M379.3,59.4c4.2,0.2,8.2-1.7,10.8-5.1
	c2.8-3.7,4.2-8.3,4.1-13c0.2-4.7-1.2-9.3-4.1-13c-5.5-6.2-14.7-6.6-20.7-0.9c-0.3,0.3-0.6,0.6-0.9,0.9c-2.8,3.7-4.3,8.3-4.1,13
	c-0.2,4.7,1.3,9.3,4.1,13C371.2,57.7,375.1,59.5,379.3,59.4z"/>
<path class="st0" d="M424.3,41.3c-0.1-6.6,1.3-13.2,4.3-19.1c2.8-5.4,6.8-10,11.8-13.3c5.3-3.4,11.4-5.5,17.6-6.1
	c7.2-0.7,14.5,0.2,21.5,2.5v22.1c-4.7-2.5-10-3.8-15.3-3.7c-4.4,0-8.6,1.7-12,4.7c-3.1,2.9-4.7,7.2-4.7,13s1.6,10.1,4.7,13
	c3.3,3,7.6,4.6,12,4.6c5.3,0,10.5-1.2,15.3-3.7v22.1c-6.9,2.3-14.2,3.2-21.4,2.5c-6.2-0.6-12.3-2.7-17.6-6.1c-5-3.3-9-7.9-11.8-13.3
	C425.6,54.6,424.1,48,424.3,41.3z"/>
<path class="st0" d="M540.3,78.5v-4.3c-2.3,2-4.9,3.6-7.8,4.7c-3,1.1-6.1,1.7-9.3,1.7c-4.5,0-9-0.9-13.2-2.8
	c-4.1-1.9-7.8-4.6-10.9-8c-3.2-3.6-5.7-7.8-7.4-12.4c-3.6-10.3-3.6-21.6,0-32c1.6-4.6,4.2-8.8,7.4-12.3c3.1-3.3,6.8-6,10.9-7.9
	c4.1-1.9,8.6-2.8,13.1-2.8c3.2,0,6.3,0.5,9.3,1.7c2.8,1,5.5,2.6,7.8,4.5V4.5H563v74.1L540.3,78.5z M526.3,59.5c4.1,0.1,8-1.7,10.6-5
	c2.8-3.8,4.2-8.4,4-13.2c0-5.5-1.3-9.8-4-13.1c-5.4-6.1-14.5-6.5-20.3-0.9c-0.3,0.3-0.6,0.6-0.9,0.9c-2.6,3.2-3.9,7.6-3.9,13.2
	s1.3,10,3.9,13.3C518.2,57.9,522.2,59.7,526.3,59.5z"/>
<path class="st0" d="M632.4,55.5c0.2,5.3-1.5,10.5-4.7,14.5c-3.4,3.9-7.8,6.8-12.7,8.2c-5.8,1.8-11.8,2.5-17.8,2.2
	c-6.8-0.3-13.5-1.4-20-3.4V54.8c3.7,1.8,7.6,3.2,11.5,4.2c3.4,0.9,6.9,1.5,10.5,1.8c2.5,0.3,5.1,0,7.6-0.8c1.7-0.4,2.8-1.9,2.9-3.7
	c-0.1-1.5-1-2.7-2.4-3.2c-2-0.9-4.1-1.6-6.3-2.1c-2.6-0.6-5.3-1.4-8.2-2.3s-5.6-2.2-8.2-3.9c-2.6-1.7-4.7-4-6.3-6.7
	c-1.7-3.3-2.6-7.1-2.4-10.9c-0.1-5,1.5-9.8,4.5-13.6c3.2-3.9,7.4-6.9,12-8.6c5.4-2,11.1-3,16.9-2.9c6.5,0,12.9,1.2,19.1,3.3v22.4
	c-4.6-2.4-9.4-4.1-14.4-5.2c-3.6-0.8-7.3-1-10.9-0.4c-2.8,0.6-4.1,1.9-4.1,3.9c0,1.4,0.8,2.4,2.4,3.1c2,0.8,4.1,1.5,6.2,1.9
	c2.5,0.6,5.2,1.4,8.1,2.3c2.9,0.9,5.6,2.3,8.1,3.9c2.6,1.7,4.7,4.1,6.2,6.9C631.8,47.8,632.6,51.7,632.4,55.5z"/>
<path class="st0" d="M654.7,78.5V25.6h-15V4.4h52v21.2h-14.2v52.9H654.7L654.7,78.5z"/>
<path class="st0" d="M237.7,4.4h-11.4v3.7c-2.3-1.7-4.9-3-7.6-3.9c-6.9-2.2-14.4-1.8-21,1.1c-3.8,1.7-7.2,4.1-10,7.2
	c-3,3.2-5.3,7-6.9,11.2c-1.7,4.5-2.5,9.3-2.5,14.2c-0.1,6.1,1.2,12.1,3.8,17.6c2.4,4.9,6.1,8.9,10.7,11.8c4.7,2.9,10,4.3,15.5,4.2
	c3.3,0,6.6-0.5,9.8-1.6c2.9-1,5.6-2.4,8-4.3v2.6c0.1,4.1-1.8,7.9-5.2,10.1c-3.3,2.2-7.1,3.4-11,3.5v21.5c0.2,0,0.5,0,0.7,0
	c6.8,0,13.5-1.4,19.7-4.2c5.6-2.6,10.4-6.9,13.7-12.3c3.3-5.5,5-12.2,5-20.4v-62C249,4.4,237.7,4.4,237.7,4.4z M223.2,47.1
	c-2.4,2.6-5.8,4-9.3,3.8c-3.6,0.2-7-1.2-9.6-3.7c-2.4-2.6-3.7-6.2-3.6-9.9c-0.2-3.7,1.1-7.4,3.6-10.1c2.6-2.6,6.1-4,9.6-3.8
	c3.5-0.2,6.9,1.3,9.3,3.9c2.4,2.7,3.6,6.3,3.5,10C226.9,40.9,225.6,44.5,223.2,47.1L223.2,47.1z"/>
<path class="st0" d="M22.5,57V2.9H-0.2v75.5h50.3V57H22.5z"/>
<g>
	<g>
		<path class="st0" d="M0.7,121.6c0-5.5,0-11.1,0-16.7c0-5.6,0-11.2,0-16.7c2,0,4.1,0,6.1,0c2,0,4.1,0,6.1,0c2.3,0,4.2,0.4,5.9,1.2
			c1.7,0.8,3,1.9,4,3.3c0.9,1.4,1.4,3.1,1.4,5c0,1.4-0.3,2.6-0.8,3.7c-0.5,1.1-1.3,2-2.4,2.8c1.4,0.8,2.4,1.9,3.1,3.2
			c0.7,1.3,1.1,2.7,1.1,4.3c0,2-0.5,3.7-1.5,5.2c-1,1.5-2.4,2.6-4.2,3.4c-1.8,0.8-3.9,1.2-6.3,1.2c-2.1,0-4.2,0-6.3,0
			C4.9,121.6,2.8,121.6,0.7,121.6z M15.6,98.6c0-0.8-0.3-1.5-0.8-2.1c-0.5-0.5-1.2-0.8-2.1-0.8c-0.6,0-1.2,0-1.8,0
			c-0.6,0-1.2,0-1.8,0c0,0.9,0,1.9,0,2.8s0,1.9,0,2.9c0.6,0,1.2,0,1.8,0c0.6,0,1.2,0,1.8,0c0.9,0,1.5-0.3,2.1-0.8
			C15.3,100.1,15.6,99.5,15.6,98.6z M16.7,111c0-0.9-0.3-1.6-0.9-2.2c-0.6-0.5-1.4-0.8-2.5-0.8c-0.7,0-1.4,0-2.1,0s-1.4,0-2.1,0
			c0,1,0,2,0,3c0,1,0,2,0,3c0.7,0,1.4,0,2.1,0s1.4,0,2.1,0c1,0,1.9-0.3,2.5-0.8C16.4,112.7,16.7,111.9,16.7,111z"/>
		<path class="st0" d="M29.9,121.6c0-5.5,0-11.1,0-16.7c0-5.6,0-11.2,0-16.7c3.3,0,6.6,0,10,0c3.4,0,6.7,0,10,0c0,1.2,0,2.5,0,3.8
			c0,1.3,0,2.6,0,3.8c-1.9,0-3.8,0-5.7,0c-1.9,0-3.8,0-5.7,0c0,0.8,0,1.6,0,2.4s0,1.6,0,2.4c1.7,0,3.5,0,5.2,0s3.5,0,5.2,0
			c0,1.2,0,2.4,0,3.7s0,2.5,0,3.7c-1.7,0-3.4,0-5.2,0s-3.5,0-5.2,0c0,0.9,0,1.9,0,2.9s0,1.9,0,2.9c1.9,0,3.8,0,5.7,0
			c1.9,0,3.8,0,5.7,0c0,1.2,0,2.5,0,3.8c0,1.3,0,2.6,0,3.8c-3.3,0-6.6,0-10,0C36.6,121.6,33.2,121.6,29.9,121.6z"/>
		<path class="st0" d="M61.7,121.6c0-4.2,0-8.5,0-12.8c0-4.3,0-8.6,0-12.8c-1.2,0-2.5,0-3.8,0c-1.3,0-2.5,0-3.8,0c0-1.3,0-2.6,0-3.9
			c0-1.3,0-2.6,0-3.9c3.9,0,7.8,0,11.8,0c4,0,7.9,0,11.8,0c0,1.3,0,2.6,0,3.9c0,1.3,0,2.6,0,3.9c-1.2,0-2.5,0-3.7,0s-2.5,0-3.8,0
			c0,4.2,0,8.5,0,12.8c0,4.3,0,8.6,0,12.8c-1.4,0-2.8,0-4.3,0C64.5,121.6,63.1,121.6,61.7,121.6z"/>
		<path class="st0" d="M79.2,121.6c1.7-5.5,3.4-11.1,5.1-16.7c1.7-5.6,3.4-11.2,5.1-16.7c1.9,0,3.9,0,5.9,0c2,0,3.9,0,5.9,0
			c1.7,5.5,3.4,11.1,5.1,16.7c1.7,5.6,3.4,11.2,5.1,16.7c-1.4,0-2.8,0-4.3,0c-1.5,0-2.9,0-4.3,0c-0.3-1-0.6-2.1-0.9-3.2
			c-0.3-1.1-0.6-2.1-0.9-3.2c-1.9,0-3.7,0-5.6,0c-1.9,0-3.8,0-5.6,0c-0.3,1-0.6,2.1-0.9,3.2c-0.3,1.1-0.6,2.1-0.9,3.2
			c-1.4,0-2.8,0-4.3,0C82.1,121.6,80.7,121.6,79.2,121.6z M91.9,107.9c1.1,0,2.3,0,3.5,0c1.2,0,2.3,0,3.5,0
			c-0.6-1.9-1.1-3.9-1.7-5.8c-0.6-2-1.2-3.9-1.7-5.8c-0.6,1.9-1.1,3.9-1.7,5.8C93,104.1,92.5,106,91.9,107.9z"/>
		<path class="st0" d="M137.6,122.3c-2.2,0-4.1-0.4-5.9-1.3c-1.8-0.9-3.3-2.1-4.6-3.7c-1.3-1.6-2.3-3.4-3-5.5
			c-0.7-2.1-1.1-4.4-1.1-6.9c0-2.5,0.4-4.8,1.1-6.9c0.7-2.1,1.7-3.9,3-5.5c1.3-1.6,2.8-2.8,4.6-3.6c1.8-0.9,3.8-1.3,5.9-1.3
			c2.2,0,4.1,0.4,5.9,1.3c1.8,0.9,3.3,2.1,4.6,3.6c1.3,1.6,2.3,3.4,3,5.5c0.7,2.1,1.1,4.4,1.1,6.9c0,2.5-0.4,4.8-1.1,6.9
			c-0.7,2.1-1.7,4-3,5.5c-1.3,1.6-2.9,2.8-4.6,3.7C141.8,121.8,139.8,122.3,137.6,122.3z M137.6,114.2c1.3,0,2.4-0.4,3.3-1.2
			c0.9-0.8,1.6-1.9,2.1-3.3c0.5-1.4,0.7-3,0.7-4.9s-0.2-3.5-0.7-4.9c-0.5-1.4-1.2-2.5-2.1-3.2c-0.9-0.8-2-1.1-3.3-1.1
			c-1.3,0-2.4,0.4-3.3,1.1c-0.9,0.8-1.6,1.8-2.1,3.2c-0.5,1.4-0.7,3-0.7,4.9c0,1.9,0.2,3.5,0.7,4.9c0.5,1.4,1.2,2.5,2.1,3.3
			C135.2,113.8,136.3,114.2,137.6,114.2z"/>
		<path class="st0" d="M160.6,122.4c-0.9,0-1.8-0.2-2.6-0.7c-0.8-0.5-1.4-1.1-1.9-1.9c-0.5-0.8-0.7-1.6-0.7-2.6
			c0-0.9,0.2-1.8,0.7-2.5c0.5-0.8,1.1-1.4,1.9-1.8c0.8-0.5,1.7-0.7,2.6-0.7c0.9,0,1.8,0.2,2.6,0.7c0.8,0.5,1.4,1.1,1.9,1.8
			c0.5,0.8,0.7,1.6,0.7,2.5c0,0.9-0.2,1.8-0.7,2.6c-0.5,0.8-1.1,1.4-1.9,1.9C162.4,122.1,161.6,122.4,160.6,122.4z"/>
		<path class="st0" d="M172.2,102.6c1.4-1.1,2.8-2.2,4.1-3.3c1.4-1.1,2.8-2.2,4.1-3.3c-1.7,0-3.4,0-5.1,0s-3.4,0-5.1,0
			c0-1.3,0-2.6,0-3.9c0-1.3,0-2.6,0-3.9c3.4,0,6.9,0,10.4,0s6.9,0,10.4,0c0,1.3,0,2.6,0,3.9c0,1.3,0,2.6,0,3.9
			c-1.2,0.9-2.4,1.9-3.5,2.9c-1.2,1-2.4,1.9-3.5,2.9c2.7,0.5,4.8,1.6,6.2,3.3c1.5,1.7,2.2,3.8,2.2,6.4c0,2.4-0.6,4.4-1.8,6
			c-1.2,1.6-2.8,2.7-4.9,3.5s-4.4,1.1-7.1,1c-2.7-0.1-5.5-0.5-8.5-1.4c0-1.3,0-2.7,0-4.1c0-1.4,0-2.8,0-4.1c2.4,0.9,4.6,1.4,6.7,1.6
			c2.1,0.2,3.8,0.1,5.1-0.3c1.3-0.4,1.9-1.1,1.9-2.2c0-1-0.5-1.8-1.5-2.3c-1-0.5-2.4-0.9-4.2-1c-1.8-0.1-3.8-0.1-6.1,0.1
			c0-0.9,0-1.9,0-2.9S172.2,103.5,172.2,102.6z"/>
	</g>
</g>
</svg>
