<svg id="Layer_1" data-name="Layer 1" xmlns="http://www.w3.org/2000/svg" viewBox="0 0 646.24 102.59"><defs><style>.cls-1{fill:tomato;}</style></defs><title>linguocast-full-logo</title><path class="cls-1" d="M296.12,228.37V174.05h17.34v54.32Z" transform="translate(-131 -149)"/><path class="cls-1" d="M325.54,228.37V174.05h17.33v2.73a22.79,22.79,0,0,1,6.36-3.1,25.24,25.24,0,0,1,7.62-1.11,20.22,20.22,0,0,1,10.56,2.74,18.63,18.63,0,0,1,7.14,7.82,26.86,26.86,0,0,1,2.58,12.25v33H359.79V197.69a11,11,0,0,0-1.94-6.78c-1.3-1.72-3.35-2.57-6.15-2.57a8.58,8.58,0,0,0-6.51,2.41c-1.55,1.61-2.32,3.93-2.32,6.94v30.68H325.54Z" transform="translate(-131 -149)"/><path class="cls-1" d="M501.21,174.05v54.32H483.88v-2.73a22.63,22.63,0,0,1-6.36,3.09,25.24,25.24,0,0,1-7.62,1.11,20.21,20.21,0,0,1-10.56-2.73,18.62,18.62,0,0,1-7.14-7.88A27,27,0,0,1,449.62,207v-33H467v30.68a11,11,0,0,0,1.94,6.77q2,2.58,6.15,2.58a8.62,8.62,0,0,0,6.52-2.42q2.31-2.41,2.31-6.93V174.05Z" transform="translate(-131 -149)"/><path class="cls-1" d="M538.51,230.05a29.6,29.6,0,0,1-11.35-2.16A27,27,0,0,1,518,221.8a28.29,28.29,0,0,1-6-9.19,31.59,31.59,0,0,1,0-22.91,27.38,27.38,0,0,1,15.18-15.18,31,31,0,0,1,22.75,0A27.49,27.49,0,0,1,565,189.7a31.45,31.45,0,0,1,0,22.91,28.13,28.13,0,0,1-6,9.19,27.12,27.12,0,0,1-9.09,6.09A29.42,29.42,0,0,1,538.51,230.05Zm0-15.66a10.19,10.19,0,0,0,8.25-3.73,14.34,14.34,0,0,0,3.1-9.51,14.07,14.07,0,0,0-3.1-9.5,11.19,11.19,0,0,0-16.5,0,14.13,14.13,0,0,0-3.1,9.5,14.39,14.39,0,0,0,3.1,9.51A10.19,10.19,0,0,0,538.51,214.39Z" transform="translate(-131 -149)"/><path class="cls-1" d="M572.87,201.15a29,29,0,0,1,3.26-14,25.87,25.87,0,0,1,9-9.72,30.56,30.56,0,0,1,13.45-4.47A42,42,0,0,1,615,174.78V191a24.63,24.63,0,0,0-11.66-2.73,14,14,0,0,0-9.14,3.42q-3.57,3.19-3.57,9.5t3.57,9.51a13.74,13.74,0,0,0,9.14,3.36A25.78,25.78,0,0,0,615,211.35v16.18a42,42,0,0,1-16.39,1.84,30.56,30.56,0,0,1-13.45-4.47,25.87,25.87,0,0,1-9-9.72A29,29,0,0,1,572.87,201.15Z" transform="translate(-131 -149)"/><path class="cls-1" d="M661.55,228.37v-3.16a19.28,19.28,0,0,1-5.94,3.42,20.62,20.62,0,0,1-7.09,1.21,25.08,25.08,0,0,1-10.09-2.05,25.36,25.36,0,0,1-8.35-5.88,27.64,27.64,0,0,1-5.67-9.09,34.5,34.5,0,0,1,0-23.43,26.4,26.4,0,0,1,5.67-9,26.13,26.13,0,0,1,8.35-5.78,25,25,0,0,1,10-2.05,21.07,21.07,0,0,1,7.14,1.21,20.86,20.86,0,0,1,6,3.31v-3h17.34v54.32ZM650.83,214.5a10,10,0,0,0,8.09-3.68,14.66,14.66,0,0,0,3.05-9.67q0-6-3.05-9.61a11,11,0,0,0-16.23,0q-3,3.57-3,9.66t3,9.72A10,10,0,0,0,650.83,214.5Z" transform="translate(-131 -149)"/><path class="cls-1" d="M732,211.56a15.61,15.61,0,0,1-3.63,10.66,20.69,20.69,0,0,1-9.72,6,41,41,0,0,1-13.6,1.63,64.37,64.37,0,0,1-15.29-2.47V211a52.43,52.43,0,0,0,8.82,3.1,43.65,43.65,0,0,0,8,1.31,15,15,0,0,0,5.78-.57,2.79,2.79,0,0,0,2.2-2.68,2.58,2.58,0,0,0-1.83-2.31,25.59,25.59,0,0,0-4.79-1.53q-2.94-.67-6.25-1.68a25.53,25.53,0,0,1-6.25-2.84,14.38,14.38,0,0,1-4.78-4.93,15.59,15.59,0,0,1-1.84-8,15.29,15.29,0,0,1,3.42-10,21.22,21.22,0,0,1,9.19-6.3,36.67,36.67,0,0,1,12.92-2.16,47.31,47.31,0,0,1,14.61,2.42v16.39a44.06,44.06,0,0,0-11-3.78,21.81,21.81,0,0,0-8.3-.26c-2.11.45-3.16,1.42-3.16,2.89,0,1,.62,1.73,1.84,2.26a27.25,27.25,0,0,0,4.73,1.41c1.93.42,4,1,6.2,1.69a26.53,26.53,0,0,1,6.2,2.88,14.38,14.38,0,0,1,4.73,5.05A16.49,16.49,0,0,1,732,211.56Z" transform="translate(-131 -149)"/><path class="cls-1" d="M749,228.37V189.6H737.51V174.05h39.73V189.6H766.36v38.77H749Z" transform="translate(-131 -149)"/><path class="cls-1" d="M430.29,174.05h-8.72v2.73a21.19,21.19,0,0,0-5.78-2.84,23.52,23.52,0,0,0-16.07.79,23.37,23.37,0,0,0-7.67,5.3,24.92,24.92,0,0,0-5.26,8.2,27.77,27.77,0,0,0-1.89,10.4,26.92,26.92,0,0,0,2.94,12.87,21.7,21.7,0,0,0,8.15,8.62,22.57,22.57,0,0,0,11.82,3.1,23.46,23.46,0,0,0,7.46-1.16,20.89,20.89,0,0,0,6.09-3.15v1.89a8.48,8.48,0,0,1-3.94,7.41,16.7,16.7,0,0,1-8.42,2.55v15.78c.18,0,.36,0,.54,0a37.29,37.29,0,0,0,15.08-3.1,23.7,23.7,0,0,0,10.45-9q3.84-6,3.84-14.92V174.05Zm-11.08,31.36a9.38,9.38,0,0,1-7.09,2.78,9.94,9.94,0,0,1-7.36-2.73,9.8,9.8,0,0,1-2.73-7.25,10.14,10.14,0,0,1,2.73-7.41,9.85,9.85,0,0,1,7.36-2.78,9.31,9.31,0,0,1,7.09,2.84,10.29,10.29,0,0,1,2.68,7.35A10,10,0,0,1,419.21,205.41Z" transform="translate(-131 -149)"/><path class="cls-1" d="M265.76,212.63V173H248.44v55.37h38.41V212.63Z" transform="translate(-131 -149)"/><path class="cls-1" d="M131,163a67.08,67.08,0,0,1,67,67h14a81.1,81.1,0,0,0-81-81Z" transform="translate(-131 -149)"/><path class="cls-1" d="M146.77,195.44l.46.2a37.54,37.54,0,0,1,18.55,49.68c-.07.16-.15.3-.22.45l12.73,5.82.22-.45a51.56,51.56,0,0,0-25.46-68.24l-.46-.19Z" transform="translate(-131 -149)"/><path class="cls-1" d="M131,230h22a22,22,0,0,0-22-22Z" transform="translate(-131 -149)"/></svg>