<?xml version="1.0" encoding="utf-8"?>
<!-- Generator: Adobe Illustrator 22.0.0, SVG Export Plug-In . SVG Version: 6.00 Build 0)  -->
<svg version="1.1" id="Layer_1" xmlns="http://www.w3.org/2000/svg" xmlns:xlink="http://www.w3.org/1999/xlink" x="0px" y="0px"
	 viewBox="0 0 697.3 119.6" style="enable-background:new 0 0 697.3 119.6;" xml:space="preserve">
<style type="text/css">
	.st0{fill:#FFFFFF;}
</style>
<title>linguocast--creators-logo</title>
<path class="st0" d="M62.2,94.5V20.4h22.7v74.1H62.2z"/>
<path class="st0" d="M100.7,94.5V20.4h22.7v3.7c2.5-1.8,5.3-3.3,8.3-4.2c3.2-1,6.6-1.6,10-1.5c4.9-0.1,9.7,1.2,13.8,3.7
	c4.1,2.6,7.3,6.3,9.3,10.7c2.4,5.2,3.5,11,3.4,16.7v45h-22.7V52.6c0.2-3.3-0.7-6.5-2.5-9.3c-1.7-2.3-4.4-3.5-8.1-3.5
	c-3.2-0.2-6.3,1-8.5,3.3c-2,2.2-3,5.4-3,9.5v41.9H100.7z"/>
<path class="st0" d="M330.5,20.4v74.1h-22.7v-3.7c-2.5,1.9-5.3,3.3-8.3,4.3c-3.2,1-6.6,1.5-10,1.5c-4.9,0.1-9.7-1.2-13.8-3.7
	c-4.1-2.6-7.3-6.4-9.3-10.8c-2.4-5.2-3.5-10.9-3.4-16.7v-45h22.7v41.8c-0.1,3.3,0.7,6.5,2.5,9.2c1.8,2.4,4.4,3.5,8,3.5
	c3.2,0.2,6.3-1,8.5-3.3c2-2.2,3-5.3,3-9.5V20.4H330.5z"/>
<path class="st0" d="M379.3,96.8c-5.1,0-10.2-1-14.9-3c-4.5-1.9-8.6-4.7-12-8.3c-3.4-3.6-6-7.8-7.8-12.5c-3.7-10.1-3.7-21.2,0-31.3
	c3.5-9.3,10.7-16.8,19.9-20.7c9.5-3.9,20.2-3.9,29.8,0c9.1,4,16.2,11.4,19.8,20.7c3.8,10.1,3.8,21.2,0,31.3
	c-1.8,4.7-4.4,8.9-7.9,12.5c-3.3,3.6-7.4,6.4-11.9,8.3C389.5,95.8,384.4,96.8,379.3,96.8z M379.3,75.4c4.2,0.1,8.2-1.8,10.8-5.1
	c2.8-3.7,4.3-8.3,4.1-13c0.2-4.7-1.2-9.3-4.1-13c-5.1-6-14.1-6.6-20.1-1.5c-0.2,0.2-0.4,0.4-0.6,0.6c-0.3,0.3-0.6,0.6-0.9,0.9
	c-2.8,3.7-4.3,8.3-4,13c-0.2,4.7,1.2,9.3,4,13C371.1,73.6,375.1,75.5,379.3,75.4z"/>
<path class="st0" d="M424.3,57.3c-0.1-6.6,1.3-13.2,4.3-19.1c2.7-5.3,6.8-9.9,11.8-13.2c5.3-3.4,11.3-5.5,17.6-6.1
	c7.3-0.7,14.6,0.2,21.5,2.5v22.1c-4.7-2.5-9.9-3.8-15.3-3.7c-4.4,0-8.7,1.7-12,4.7c-3.1,2.9-4.7,7.2-4.7,13s1.6,10.1,4.7,13
	c3.3,3,7.5,4.6,12,4.6c5.3,0,10.6-1.2,15.3-3.7v22c-6.9,2.3-14.2,3.2-21.4,2.5c-6.3-0.6-12.3-2.7-17.6-6.1c-5-3.3-9.1-7.9-11.8-13.3
	C425.6,70.5,424.1,64,424.3,57.3z"/>
<path class="st0" d="M540.3,94.5v-4.3c-2.3,2-4.9,3.6-7.8,4.7c-3,1.1-6.1,1.7-9.3,1.7c-4.6,0-9.1-0.9-13.2-2.8
	c-4.1-1.9-7.9-4.6-10.9-8c-3.2-3.6-5.8-7.8-7.4-12.4c-3.6-10.4-3.6-21.6,0-32c1.6-4.5,4.2-8.7,7.5-12.3c3.1-3.3,6.8-6,10.9-7.9
	c4.1-1.9,8.6-2.8,13.1-2.8c3.2,0,6.4,0.6,9.4,1.7c2.9,1.1,5.5,2.6,7.8,4.5v-4.1H563v74.1L540.3,94.5z M526.3,75.5
	c4.1,0.1,8.1-1.7,10.6-5c2.8-3.8,4.2-8.5,4-13.2c0-5.5-1.3-9.8-4-13.1c-5-5.9-13.9-6.5-19.7-1.5c-0.2,0.2-0.4,0.4-0.6,0.5
	c-0.3,0.3-0.6,0.6-0.9,0.9c-2.6,3.3-3.9,7.7-3.9,13.2s1.3,10,3.9,13.3C518.2,73.9,522.1,75.7,526.3,75.5L526.3,75.5z"/>
<path class="st0" d="M632.5,71.5c0.2,5.3-1.5,10.4-4.8,14.6c-3.4,3.9-7.8,6.7-12.7,8.2c-5.8,1.8-11.8,2.5-17.8,2.2
	c-6.8-0.3-13.5-1.4-20-3.4V70.8c3.7,1.8,7.6,3.2,11.5,4.2c3.4,0.9,6.9,1.5,10.5,1.8c2.5,0.3,5.1,0,7.6-0.8c1.7-0.4,2.9-1.9,2.9-3.7
	c-0.1-1.4-1-2.7-2.4-3.2c-2-0.9-4.1-1.6-6.2-2.1c-2.6-0.6-5.3-1.4-8.2-2.3c-2.9-0.9-5.6-2.2-8.2-3.9c-2.6-1.7-4.7-4-6.3-6.7
	c-1.7-3.4-2.5-7.1-2.4-10.9c-0.1-4.9,1.5-9.7,4.5-13.6c3.2-3.9,7.3-6.9,12-8.6c5.4-2,11.1-3,16.9-3c6.5,0,13,1.2,19.1,3.3v22.4
	c-4.5-2.4-9.4-4.1-14.4-5.2c-3.6-0.8-7.3-1-10.9-0.3c-2.8,0.6-4.1,1.9-4.1,3.9c0,1.4,0.8,2.4,2.4,3.1c2,0.8,4.1,1.5,6.2,1.9
	c2.5,0.6,5.2,1.4,8.1,2.3c2.9,0.9,5.6,2.3,8.1,3.9c2.6,1.8,4.7,4.1,6.2,6.9C631.8,63.8,632.6,67.7,632.5,71.5z"/>
<path class="st0" d="M654.7,94.5V41.6h-15V20.4h52v21.2h-14.3v52.9H654.7z"/>
<path class="st0" d="M237.7,20.4h-11.4v3.7c-2.3-1.7-4.9-3-7.6-3.9c-6.9-2.2-14.4-1.8-21,1.1c-3.8,1.7-7.2,4.2-10,7.2
	c-3,3.2-5.3,7-6.9,11.2c-1.7,4.5-2.5,9.3-2.5,14.2c-0.1,6.1,1.2,12.1,3.9,17.6c2.4,4.8,6.1,8.9,10.7,11.8c4.6,2.9,10,4.3,15.5,4.2
	c3.3,0,6.6-0.5,9.8-1.6c2.9-1,5.6-2.4,8-4.3v2.6c0.1,4-1.8,7.9-5.1,10.1c-3.3,2.2-7.1,3.4-11,3.5v21.5h0.7c6.8,0,13.5-1.4,19.6-4.3
	c5.7-2.6,10.4-6.9,13.7-12.3c3.3-5.5,5-12.2,5-20.4v-62L237.7,20.4z M223.2,63.1c-2.4,2.5-5.7,3.9-9.2,3.8c-3.6,0.2-7.1-1.2-9.6-3.7
	c-2.5-2.7-3.8-6.2-3.6-9.9c-0.2-3.7,1.1-7.3,3.6-10.1c2.5-2.6,6-4,9.6-3.8c3.5-0.1,6.9,1.3,9.3,3.9c2.4,2.8,3.7,6.3,3.5,10
	C226.9,56.9,225.7,60.4,223.2,63.1L223.2,63.1z"/>
<path class="st0" d="M22.5,73V18.9H-0.2v75.6h50.3V73H22.5z"/>
</svg>
